# xmcd
#
# Track frame offsets:
# 150
# 20900
# 39652
# 56772
# 71165
# 89390
# 104860
# 123062
# 145540
# 160272
# 175820
# 196427
# 215070
# 232155
# 246390
# 263720
# 279150
# 297297
# 319682
# 334450
#
# Disc length: 4664 seconds
#
#
# Revision: 0
# Processed by: cddbd v1.5.2PL0 Copyright (c) Steve Scherf et al.
# Submitted via: FreeRIP 2.951 
#
DISCID=3f123614
DTITLE=Esteves Jacinto - Meus Hinos Preferidos
DYEAR=1900
DGENRE=Gospel
TTITLE0=Esteves Jacinto - Valeu a Pena
TTITLE1=Esteves Jacinto - Sem Comparacao
TTITLE2=Esteves Jacinto - Renovacao
TTITLE3=Esteves Jacinto - Daqui a Pouco
TTITLE4=Esteves Jacinto - Do Jeito de Deus
TTITLE5=Esteves Jacinto - Um Farol na Escuridao
TTITLE6=Esteves Jacinto - Eu sei
TTITLE7=Esteves Jacinto - Uncao la do Alto
TTITLE8=Esteves Jacinto - Vitoria do crente
TTITLE9=Esteves Jacinto - Deus Tremendo
TTITLE10=Esteves Jacinto - Valeu a Pena - playback
TTITLE11=Esteves Jacinto - Sem Comparacao - playback
TTITLE12=Esteves Jacinto - Renovacao - playback
TTITLE13=Esteves Jacinto - Daqui a Pouco - playback
TTITLE14=Esteves Jacinto - Do Jeito de Deus - playback
TTITLE15=Esteves Jacinto - Um Farol na Escuridao - playback
TTITLE16=Esteves Jacinto - Eu sei - playback
TTITLE17=Esteves Jacinto - Uncao la do Alto - playback
TTITLE18=Esteves Jacinto - Vitoria do crente - playback
TTITLE19=Esteves Jacinto - Deus Tremendo - playback
EXTD=Este cd tambérm é maravilhoso.\nSó a música: SEM COMPARAÇÃO já vale a pena comprar este cd.\nO resto das música nem precisa de comentários...\nComprem, ouçam e seja bastante abençoados por Deus e por este cantor e pastor maravilhoso.
EXTT0=
EXTT1=
EXTT2=
EXTT3=
EXTT4=
EXTT5=
EXTT6=
EXTT7=
EXTT8=
EXTT9=
EXTT10=
EXTT11=
EXTT12=
EXTT13=
EXTT14=
EXTT15=
EXTT16=
EXTT17=
EXTT18=
EXTT19=
PLAYORDER=
